<svg xmlns="http://www.w3.org/2000/svg" viewBox="0 0 900 900" role="img" aria-labelledby="title desc">
  <title id="title">Jamf Script Uploader cover</title>
  <desc id="desc">A square editorial illustration showing a Jamf Pro script upload workflow with a terminal, API token, and cloud upload path.</desc>
  <defs>
    <linearGradient id="bg" x1="90" x2="820" y1="80" y2="850" gradientUnits="userSpaceOnUse">
      <stop offset="0" stop-color="#06142b"/>
      <stop offset=".48" stop-color="#0a2d55"/>
      <stop offset="1" stop-color="#101015"/>
    </linearGradient>
    <radialGradient id="glowBlue" cx="650" cy="210" r="520" gradientUnits="userSpaceOnUse">
      <stop offset="0" stop-color="#20b8ff" stop-opacity=".65"/>
      <stop offset=".45" stop-color="#1275d8" stop-opacity=".24"/>
      <stop offset="1" stop-color="#1275d8" stop-opacity="0"/>
    </radialGradient>
    <linearGradient id="panel" x1="190" x2="710" y1="220" y2="700" gradientUnits="userSpaceOnUse">
      <stop offset="0" stop-color="#f6fbff"/>
      <stop offset="1" stop-color="#c9def2"/>
    </linearGradient>
    <filter id="softShadow" x="-20%" y="-20%" width="140%" height="140%">
      <feDropShadow dx="0" dy="30" stdDeviation="28" flood-color="#000" flood-opacity=".34"/>
    </filter>
  </defs>
  <rect width="900" height="900" fill="url(#bg)"/>
  <rect width="900" height="900" fill="url(#glowBlue)"/>
  <circle cx="135" cy="170" r="5" fill="#9edcff" opacity=".75"/>
  <circle cx="775" cy="680" r="7" fill="#f7f5ef" opacity=".42"/>
  <circle cx="755" cy="155" r="4" fill="#20b8ff" opacity=".68"/>
  <path d="M110 675c115-82 206-87 315-23 84 49 180 57 363-50" fill="none" stroke="#19a0f5" stroke-linecap="round" stroke-width="2" opacity=".28"/>
  <g filter="url(#softShadow)">
    <rect x="148" y="188" width="604" height="468" rx="42" fill="#081012"/>
    <rect x="176" y="236" width="548" height="392" rx="22" fill="url(#panel)"/>
    <rect x="176" y="236" width="548" height="62" rx="22" fill="#0d1720"/>
    <circle cx="216" cy="267" r="9" fill="#ff6258"/>
    <circle cx="247" cy="267" r="9" fill="#ffc246"/>
    <circle cx="278" cy="267" r="9" fill="#2bd579"/>
    <g fill="none" stroke-linecap="round" stroke-linejoin="round">
      <path d="M258 397h188" stroke="#0b2038" stroke-width="24"/>
      <path d="M258 462h300" stroke="#0b2038" stroke-width="24"/>
      <path d="M258 527h222" stroke="#0b2038" stroke-width="24"/>
      <path d="M510 378l58 52-58 52" stroke="#168ce4" stroke-width="22"/>
      <path d="M388 378l-58 52 58 52" stroke="#168ce4" stroke-width="22"/>
    </g>
    <rect x="520" y="466" width="128" height="128" rx="26" fill="#0e73d8"/>
    <path d="M555 537l25 26 48-67" fill="none" stroke="#fff" stroke-linecap="round" stroke-linejoin="round" stroke-width="18"/>
  </g>
  <g>
    <rect x="304" y="660" width="292" height="86" rx="43" fill="#101820"/>
    <path d="M372 703h156" stroke="#20b8ff" stroke-linecap="round" stroke-width="18"/>
    <path d="M548 675l38 28-38 28" fill="none" stroke="#20b8ff" stroke-linecap="round" stroke-linejoin="round" stroke-width="18"/>
  </g>
  <g transform="translate(658 108)">
    <circle cx="0" cy="0" r="64" fill="#f7f5ef" opacity=".96"/>
    <path d="M-23-7h46M-23 15h46M-6-30h29v29" fill="none" stroke="#0e73d8" stroke-linecap="round" stroke-linejoin="round" stroke-width="12"/>
  </g>
  <text x="82" y="820" fill="#f7f5ef" font-family="Arial, Helvetica, sans-serif" font-size="54" font-weight="800" letter-spacing="0">Jamf Script</text>
  <text x="82" y="865" fill="#9edcff" font-family="Arial, Helvetica, sans-serif" font-size="32" font-weight="700" letter-spacing="0">API upload workflow</text>
</svg>
